#!OML:ASF C:\ViconDB\ViconDB\414\Spring2016\042216\male.ASF
:FULLY-SPECIFIED
:DEGREES
855
root 14.9174 17.6028 7.01593 -180.537 42.6959 -179.455
lowerback -1.28199 -2.6973 3.33565
upperback -0.26305 -3.63522 -0.0168376
thorax 0.239359 -1.81455 -1.9286
lowerneck -2.67971 5.6164 -3.59293
upperneck 4.06979 7.55218 2.79528
head 1.47342 3.78071 1.62378
rclavicle -8.3912e-014 -8.34896e-015
rhumerus -27.14 -0.726011 -92.5653
rradius 25.5398
rwrist 32.7228
rhand 15.8957 -15.8129
rfingers 7.12502
rthumb 40.6941 -40.8257
lclavicle -8.3912e-014 -8.34896e-015
lhumerus -35.07 13.1758 90.2683
lradius 34.9193
lwrist -13.1852
lhand -7.45369 11.9694
lfingers 7.12502
lthumb 18.4344 41.1159
rfemur -4.19159 -1.91195 19.2298
rtibia 16.0615
rfoot -10.1888 20.9162
rtoes 4.27974
lfemur -5.21483 -16.6416 -6.11084
ltibia 9.73662
lfoot -10.5175 -2.30909
ltoes -21.4333
856
root 14.8932 17.5979 6.94017 -180.465 43.2822 -179.281
lowerback -1.43492 -2.69907 3.5475
upperback -0.226971 -3.64672 0.030816
thorax 0.351181 -1.81732 -2.00702
lowerneck -2.63396 5.76347 -3.44356
upperneck 4.05231 7.74899 2.58979
head 1.46608 3.8768 1.53376
rclavicle 5.99646e-014 -3.77691e-015
rhumerus -27.3207 -1.05664 -92.1838
rradius 25.5464
rwrist 32.6488
rhand 16.3507 -16.2423
rfingers 7.12502
rthumb 41.1215 -41.12
lclavicle 5.99646e-014 -3.77691e-015
lhumerus -34.8693 12.9 90.3354
lradius 34.3892
lwrist -13.0963
lhand -7.55031 11.6686
lfingers 7.12502
lthumb 18.3415 40.8239
rfemur -4.2599 -2.14693 19.0856
rtibia 16.4153
rfoot -10.3219 21.7322
rtoes 4.3339
lfemur -4.66271 -16.2764 -6.37284
ltibia 9.60663
lfoot -10.5086 -1.65044
ltoes -21.7568
857
root 14.8721 17.5983 6.86715 -180.74 43.889 -179.682
lowerback -1.57898 -2.67934 3.211
upperback -0.219065 -3.62159 -0.0114404
thorax 0.459589 -1.80366 -1.87105
lowerneck -2.63294 5.90186 -3.36546
upperneck 3.99303 7.9331 2.51242
head 1.44682 3.9683 1.49669
rclavicle 1.20389e-014 1.19271e-015
rhumerus -27.4034 -2.00632 -91.6194
rradius 25.3543
rwrist 33.5579
rhand 17.448 -16.2244
rfingers 7.12502
rthumb 42.1507 -40.7638
lclavicle 1.20389e-014 1.19271e-015
lhumerus -34.8581 12.7397 90.3084
lradius 34.3195
lwrist -13.4448
lhand -7.28417 11.378
lfingers 7.12502
lthumb 18.5975 40.509
rfemur -4.30531 -2.36103 18.4831
rtibia 16.6382
rfoot -10.4254 22.5381
rtoes 4.1996
lfemur -4.06479 -15.8627 -7.11454
ltibia 9.36447
lfoot -10.8704 -1.06313
ltoes -22.2538
858
root 14.8439 17.5971 6.78739 -180.942 44.4106 -180.069
lowerback -1.77636 -2.67535 3.06822
upperback -0.262831 -3.6198 -0.0895515
thorax 0.52904 -1.80253 -1.88067
lowerneck -2.59172 5.9668 -3.43692
upperneck 3.91639 8.01948 2.55778
head 1.40797 4.01141 1.51972
rclavicle 3.60173e-014 5.96354e-016
rhumerus -27.6127 -2.5192 -91.1758
rradius 25.2834
rwrist 33.907
rhand 18.3887 -16.4397
rfingers 7.12502
rthumb 43.0312 -40.6746
lclavicle 3.60173e-014 5.96354e-016
lhumerus -34.9832 12.5951 90.2926
lradius 34.4929
lwrist -13.3978
lhand -6.65508 11.5376
lfingers 7.12502
lthumb 19.2025 40.6096
rfemur -4.35712 -2.49336 17.8524
rtibia 16.6794
rfoot -10.2592 23.2382
rtoes 4.52064
lfemur -3.55531 -15.5253 -7.87822
ltibia 9.12136
lfoot -11.0321 -0.0758334
ltoes -22.588
859
root 14.8228 17.5933 6.70867 -181.018 44.9901 -180.121
lowerback -1.92338 -2.68329 3.03935
upperback -0.251657 -3.63502 -0.0701355
thorax 0.625 -1.80839 -1.85326
lowerneck -2.5759 6.11167 -3.32376
upperneck 3.88883 8.21282 2.42228
head 1.39998 4.10683 1.45901
rclavicle -5.89459e-014 -2.38542e-015
rhumerus -27.7753 -3.62523 -90.5601
rradius 25.1174
rwrist 34.9632
rhand 19.3334 -15.9758
rfingers 7.12502
rthumb 43.9136 -39.8908
lclavicle -5.89459e-014 -2.38542e-015
lhumerus -35.0226 12.4974 90.3221
lradius 34.6183
lwrist -13.0288
lhand -6.28606 11.7518
lfingers 7.12502
lthumb 19.5573 40.7881
rfemur -4.25862 -2.48881 17.5293
rtibia 16.711
rfoot -10.2509 23.8207
rtoes 4.57428
lfemur -2.81793 -15.1427 -8.33982
ltibia 8.62507
lfoot -11.2262 0.645692
ltoes -22.5059
860
root 14.8023 17.5909 6.6296 -181.138 45.5339 -180.245
lowerback -2.03915 -2.69443 2.94654
upperback -0.278361 -3.65116 -0.0567808
thorax 0.668179 -1.81613 -1.79369
lowerneck -2.45116 6.29328 -3.11041
upperneck 3.83495 8.4519 2.1982
head 1.37156 4.22477 1.34948
rclavicle -8.03835e-015 1.98785e-016
rhumerus -28.0401 -3.88761 -90.101
rradius 25.0623
rwrist 35.1346
rhand 20.3274 -15.8193
rfingers 7.12502
rthumb 44.84 -39.3816
lclavicle -8.03835e-015 1.98785e-016
lhumerus -35.2394 12.3526 90.3659
lradius 34.8075
lwrist -12.8711
lhand -6.41899 11.9599
lfingers 7.12502
lthumb 19.4295 41.0091
rfemur -4.15072 -1.95877 17.1846
rtibia 16.7578
rfoot -10.4325 23.8255
rtoes 4.43875
lfemur -1.97006 -14.783 -8.84803
ltibia 7.87173
lfoot -11.2666 1.43693
ltoes -22.1008
861
root 14.7797 17.5888 6.55642 -181.149 46.029 -180.312
lowerback -2.24662 -2.66943 2.924
upperback -0.291474 -3.62361 -0.045186
thorax 0.774397 -1.80064 -1.77949
lowerneck -2.34171 6.37557 -3.0147
upperneck 3.73715 8.56124 2.02848
head 1.32941 4.2776 1.27453
rclavicle 3.96575e-014 -4.77083e-015
rhumerus -28.2003 -5.09131 -89.5153
rradius 24.8561
rwrist 35.91
rhand 20.7996 -15.7035
rfingers 7.12502
rthumb 45.2792 -39.0922
lclavicle 3.96575e-014 -4.77083e-015
lhumerus -35.3287 12.0175 90.4888
lradius 34.8276
lwrist -12.902
lhand -6.4488 12.0481
lfingers 7.12502
lthumb 19.4009 41.1003
rfemur -4.11951 -1.74714 16.8799
rtibia 16.7278
rfoot -10.4805 24.0601
rtoes 4.39924
lfemur -1.14865 -14.4487 -9.26246
ltibia 6.93934
lfoot -11.3678 2.16868
ltoes -21.9055
862
root 14.7555 17.5801 6.47612 -181.311 46.5672 -180.524
lowerback -2.4296 -2.68098 2.84023
upperback -0.246413 -3.64378 -0.068942
thorax 0.925653 -1.80826 -1.76901
lowerneck -2.50575 6.50591 -2.88194
upperneck 3.80377 8.74027 1.86989
head 1.3866 4.36555 1.21505
rclavicle 8.78131e-014 -9.93923e-016
rhumerus -28.3341 -5.36571 -89.214
rradius 24.7898
rwrist 35.8141
rhand 21.0067 -15.9796
rfingers 7.12502
rthumb 45.4717 -39.2909
lclavicle 8.78131e-014 -9.93923e-016
lhumerus -35.2517 11.9774 90.5124
lradius 34.6762
lwrist -12.8209
lhand -6.28661 11.822
lfingers 7.12502
lthumb 19.5568 40.8583
rfemur -4.03989 -1.28049 16.4437
rtibia 16.7174
rfoot -10.4976 24.1541
rtoes 4.45724
lfemur -0.0795021 -14.0676 -9.82152
ltibia 5.62768
lfoot -11.3496 3.04449
ltoes -21.3975
863
root 14.7383 17.5777 6.40624 -181.38 46.978 -180.713
lowerback -2.60738 -2.71743 2.55523
upperback -0.286373 -3.68932 -0.0190228
thorax 1.00305 -1.8311 -1.56921
lowerneck -2.54741 6.61513 -2.89696
upperneck 3.8401 8.89041 1.80752
head 1.40373 4.43907 1.20294
rclavicle -1.59897e-014 0
rhumerus -28.5219 -6.07313 -88.7209
rradius 24.6022
rwrist 36.3948
rhand 21.3462 -15.784
rfingers 7.12502
rthumb 45.7871 -38.9666
lclavicle -1.59897e-014 0
lhumerus -35.2313 11.9653 90.5245
lradius 34.4655
lwrist -12.9631
lhand -6.41351 11.794
lfingers 7.12502
lthumb 19.4348 40.8428
rfemur -4.01834 -1.08107 16.0592
rtibia 16.6557
rfoot -10.5905 24.3325
rtoes 4.19361
lfemur 1.02093 -13.7834 -10.2683
ltibia 3.84396
lfoot -10.9409 3.62201
ltoes -21.4148
864
root 14.7134 17.5757 6.32884 -181.441 47.4262 -180.819
lowerback -2.77582 -2.71626 2.5749
upperback -0.305678 -3.6921 -0.0668429
thorax 1.07294 -1.8314 -1.63762
lowerneck -2.44853 6.69141 -2.74485
upperneck 3.76742 8.98825 1.68131
head 1.37318 4.48778 1.13391
rclavicle 4.52856e-014 -7.95139e-015
rhumerus -28.793 -6.65633 -88.3767
rradius 24.5146
rwrist 36.468
rhand 21.6463 -16.0305
rfingers 7.12502
rthumb 46.0656 -39.0977
lclavicle 4.52856e-014 -7.95139e-015
lhumerus -35.3113 11.4928 90.5953
lradius 34.4277
lwrist -12.6308
lhand -6.54955 11.8725
lfingers 7.12502
lthumb 19.304 40.9344
rfemur -3.93039 -0.276098 15.7397
rtibia 16.573
rfoot -10.6784 23.9892
rtoes 4.13739
lfemur 3.14703 -13.4279 -10.5901
ltibia -2.22639e-014
lfoot -9.47682 3.81963
ltoes -21.3833
865
root 14.6915 17.5747 6.25468 -181.497 47.794 -180.861
lowerback -2.94258 -2.73323 2.60068
upperback -0.294069 -3.71999 -0.104866
thorax 1.17268 -1.84355 -1.7012
lowerneck -2.3282 6.74351 -2.57265
upperneck 3.66856 9.0541 1.51623
head 1.33435 4.52018 1.04786
rclavicle 2.02885e-014 -7.55382e-015
rhumerus -29.0377 -7.1516 -88.1183
rradius 24.412
rwrist 36.6501
rhand 21.9006 -16.0162
rfingers 7.12502
rthumb 46.3013 -38.9842
lclavicle 2.02885e-014 -7.55382e-015
lhumerus -35.4321 11.6827 90.4355
lradius 34.4395
lwrist -12.8194
lhand -6.54083 11.9697
lfingers 7.12502
lthumb 19.3124 41.0307
rfemur -3.73758 0.240431 15.4881
rtibia 16.4252
rfoot -10.8391 23.8
rtoes 3.84883
lfemur 3.48101 -13.222 -10.9587
ltibia -2.14687e-014
lfoot -10.0573 4.35232
ltoes -20.9568
866
root 14.6712 17.574 6.19011 -181.384 48.041 -180.878
lowerback -3.12095 -2.78918 2.43845
upperback -0.378481 -3.79239 -0.038468
thorax 1.19734 -1.88028 -1.55273
lowerneck -2.35707 6.75226 -2.7875
upperneck 3.72876 9.07018 1.64821
head 1.3428 4.52779 1.12618
rclavicle -4.02166e-014 -1.98785e-015
rhumerus -29.3417 -7.41986 -87.8102
rradius 24.3251
rwrist 36.2955
rhand 21.8755 -16.2696
rfingers 7.12502
rthumb 46.278 -39.2475
lclavicle -4.02166e-014 -1.98785e-015
lhumerus -35.534 11.6975 90.4116
lradius 34.3511
lwrist -12.7961
lhand -6.17529 11.807
lfingers 7.12502
lthumb 19.6638 40.8325
rfemur -3.67302 1.1181 15.3034
rtibia 16.1975
rfoot -10.9693 23.1678
rtoes 3.64074
lfemur 3.55346 -13.1132 -11.1889
ltibia -4.77083e-015
lfoot -10.4723 4.66682
ltoes -20.5668
867
root 14.6478 17.5725 6.12178 -181.54 48.3015 -181.146
lowerback -3.20544 -2.85053 2.23543
upperback -0.469499 -3.86663 -0.0908361
thorax 1.1577 -1.91916 -1.49779
lowerneck -2.20718 6.85053 -2.72592
upperneck 3.71109 9.19643 1.63033
head 1.31191 4.59155 1.10477
rclavicle -8.29181e-014 -4.77083e-015
rhumerus -29.6971 -8.01648 -87.4942
rradius 24.1979
rwrist 36.4638
rhand 21.9487 -16.446
rfingers 7.12502
rthumb 46.3459 -39.3951
lclavicle -8.29181e-014 -4.77083e-015
lhumerus -35.7197 12.1932 89.9444
lradius 34.2676
lwrist -15.1534
lhand -5.07489 11.9972
lfingers 7.12502
lthumb 20.7215 40.9109
rfemur -3.55176 1.07242 14.8325
rtibia 15.9482
rfoot -10.8533 23.4289
rtoes 3.40542
lfemur 3.73513 -12.9985 -11.6489
ltibia -1.90833e-014
lfoot -10.9415 4.92178
ltoes -19.9238
868
root 14.6175 17.5748 6.05234 -181.401 48.6296 -181.103
lowerback -3.34633 -2.83501 2.36624
upperback -0.539208 -3.85146 -0.118702
thorax 1.15497 -1.91111 -1.6039
lowerneck -2.05949 6.9172 -2.48766
upperneck 3.67396 9.28189 1.41546
head 1.29341 4.63374 0.993992
rclavicle -2.04251e-014 -3.97569e-015
rhumerus -30.118 -8.86784 -87.1681
rradius 24.18
rwrist 37.0439
rhand 22.1539 -16.3652
rfingers 7.12502
rthumb 46.5361 -39.2331
lclavicle -2.04251e-014 -3.97569e-015
lhumerus -35.7659 12.0009 89.9181
lradius 34.0334
lwrist -15.0711
lhand -5.42881 11.9321
lfingers 7.12502
lthumb 20.3814 40.8826
rfemur -3.50711 1.53655 14.6349
rtibia 15.681
rfoot -10.7461 23.266
rtoes 3.31724
lfemur 3.8258 -12.8135 -11.8498
ltibia 2.38542e-015
lfoot -11.3463 5.08342
ltoes -19.7172
869
root 14.5887 17.5764 5.98799 -181.359 48.8711 -181.183
lowerback -3.4552 -2.84737 2.32581
upperback -0.612224 -3.86677 -0.138721
thorax 1.14147 -1.91918 -1.60614
lowerneck -1.91204 6.89774 -2.57224
upperneck 3.55427 9.25474 1.41359
head 1.22709 4.61966 0.996212
rclavicle 1.13618e-013 6.36111e-015
rhumerus -30.4437 -9.32074 -86.8952
rradius 24.1206
rwrist 37.2235
rhand 22.2809 -16.5349
rfingers 7.12502
rthumb 46.6537 -39.3522
lclavicle 1.13618e-013 6.36111e-015
lhumerus -35.8608 12.009 89.8444
lradius 33.9316
lwrist -15.1348
lhand -5.45126 11.5665
lfingers 7.12502
lthumb 20.3598 40.5193
rfemur -3.43566 2.05912 14.3671
rtibia 15.3771
rfoot -10.7455 22.8714
rtoes 3.06918
lfemur 3.86245 -12.7146 -12.1081
ltibia -4.21423e-014
lfoot -11.6558 5.15887
ltoes -19.7261
